<svg id="visual" viewBox="0 0 900 600" width="900" height="600" xmlns="http://www.w3.org/2000/svg" xmlns:xlink="http://www.w3.org/1999/xlink" version="1.1"><g transform="translate(478.75146280755257 279.84370628002335)"><path d="M104.4 -154.5C141.3 -138.8 181.2 -119.9 196.4 -89C211.7 -58 202.4 -15.1 192.5 25C182.6 65.2 172.2 102.7 152.2 139.8C132.3 176.9 102.9 213.7 66.9 221.3C30.8 229 -11.9 207.6 -51.6 189.6C-91.4 171.7 -128.1 157.2 -162.7 132.5C-197.3 107.7 -229.8 72.7 -247.8 28.2C-265.8 -16.4 -269.4 -70.5 -242.6 -103.2C-215.8 -135.8 -158.7 -147 -113.2 -158.7C-67.8 -170.4 -33.9 -182.7 0 -182.6C33.8 -182.6 67.6 -170.2 104.4 -154.5" fill="#74a721"></path></g></svg>