<svg id="visual" viewBox="0 0 900 600" width="900" height="600" xmlns="http://www.w3.org/2000/svg" xmlns:xlink="http://www.w3.org/1999/xlink" version="1.1"><g transform="translate(453.0109826589727 326.61374799073883)"><path d="M110.7 -175.7C140.2 -153.2 158.8 -117.1 162 -82.2C165.1 -47.3 152.8 -13.5 145.2 19C137.5 51.5 134.5 82.7 119.1 106.7C103.7 130.7 76 147.4 47.2 151.6C18.5 155.8 -11.2 147.4 -36.9 135.4C-62.7 123.4 -84.5 107.8 -108.7 89C-132.9 70.3 -159.5 48.5 -166.5 21.9C-173.5 -4.7 -160.9 -36.2 -149.3 -71C-137.8 -105.7 -127.3 -143.7 -102.6 -168.4C-77.9 -193.1 -38.9 -204.6 0.8 -205.8C40.5 -207.1 81.1 -198.2 110.7 -175.7" fill="#74a721"></path></g></svg>