<svg id="visual" viewBox="0 0 900 600" width="900" height="600" xmlns="http://www.w3.org/2000/svg" xmlns:xlink="http://www.w3.org/1999/xlink" version="1.1"><path d="M0 509L7.5 510.3C15 511.7 30 514.3 45 512.5C60 510.7 75 504.3 90 502.8C105 501.3 120 504.7 135 503.8C150 503 165 498 180 497.3C195 496.7 210 500.3 225 504.5C240 508.7 255 513.3 270 513.8C285 514.3 300 510.7 315 509.2C330 507.7 345 508.3 360 510.8C375 513.3 390 517.7 405 516.2C420 514.7 435 507.3 450 506.2C465 505 480 510 495 513.7C510 517.3 525 519.7 540 517.3C555 515 570 508 585 503.5C600 499 615 497 630 496.8C645 496.7 660 498.3 675 501.2C690 504 705 508 720 510C735 512 750 512 765 514C780 516 795 520 810 521.3C825 522.7 840 521.3 855 517.7C870 514 885 508 892.5 505L900 502L900 601L892.5 601C885 601 870 601 855 601C840 601 825 601 810 601C795 601 780 601 765 601C750 601 735 601 720 601C705 601 690 601 675 601C660 601 645 601 630 601C615 601 600 601 585 601C570 601 555 601 540 601C525 601 510 601 495 601C480 601 465 601 450 601C435 601 420 601 405 601C390 601 375 601 360 601C345 601 330 601 315 601C300 601 285 601 270 601C255 601 240 601 225 601C210 601 195 601 180 601C165 601 150 601 135 601C120 601 105 601 90 601C75 601 60 601 45 601C30 601 15 601 7.5 601L0 601Z" fill="#0066FF" stroke-linecap="round" stroke-linejoin="miter"></path></svg>